<?xml version="1.0" encoding="UTF-8"?><svg id="Calque_2" xmlns="http://www.w3.org/2000/svg" viewBox="0 0 192.86 258.64"><defs><style>.cls-1{stroke:#cd9833;}.cls-1,.cls-2,.cls-3,.cls-4,.cls-5,.cls-6{fill:none;stroke-miterlimit:10;}.cls-1,.cls-2,.cls-3,.cls-4,.cls-6{stroke-width:4px;}.cls-7{fill:#fff;}.cls-2{stroke:#201e1f;}.cls-3{stroke:#35705c;}.cls-4,.cls-5{stroke:#1b4988;}.cls-5{stroke-dasharray:0 0 0 0 5 2.5 0 0;stroke-width:2px;}.cls-6{stroke:#e51e31;}.cls-8{fill:#201e1f;}.cls-9{fill:#fbecde;}.cls-10{fill:#346f5c;}.cls-11{fill:#1b4988;}</style></defs><g id="Calque_4"><path class="cls-7" d="m182.86,10v59.81l-75.75,59.51,75.75,59.51v59.81H10v-59.81l75.75-59.51L10,69.81V10h172.86m0-10H10C4.48,0,0,4.48,0,10v59.81c0,3.07,1.41,5.97,3.82,7.86l65.74,51.65L3.82,180.97c-2.41,1.9-3.82,4.79-3.82,7.86v59.81c0,5.52,4.48,10,10,10h172.86c5.52,0,10-4.48,10-10v-59.81c0-3.07-1.41-5.97-3.82-7.86l-65.74-51.65,65.74-51.65c2.41-1.9,3.82-4.79,3.82-7.86V10c0-5.52-4.48-10-10-10h0Z"/><polygon class="cls-9" points="182.86 69.81 107.11 129.32 182.86 188.83 182.86 248.64 10 248.64 10 188.83 85.75 129.32 10 69.81 10 10 182.86 10 182.86 69.81"/><rect class="cls-11" x="88.28" y="121.23" width="16.3" height="16.3"/><line class="cls-5" x1="96.43" y1="101.38" x2="96.43" y2="122.82"/><line class="cls-5" x1="111.66" y1="115.62" x2="103.48" y2="122.54"/><line class="cls-5" x1="79.41" y1="114.63" x2="91.92" y2="124.52"/><line class="cls-5" x1="96.43" y1="157.34" x2="96.43" y2="135.9"/><line class="cls-5" x1="81.89" y1="142.82" x2="90.07" y2="135.9"/><line class="cls-5" x1="113.51" y1="144.31" x2="101.01" y2="134.41"/><circle class="cls-4" cx="48.63" cy="73.84" r="3.56"/><line class="cls-4" x1="40.82" y1="84.76" x2="46.87" y2="76.94"/><circle class="cls-4" cx="144.92" cy="184.92" r="3.56"/><line class="cls-4" x1="152.73" y1="174" x2="146.68" y2="181.82"/><line class="cls-2" x1="111.83" y1="79.59" x2="111.83" y2="109.89"/><line class="cls-2" x1="80.72" y1="179.17" x2="80.72" y2="148.87"/><circle class="cls-2" cx="96.36" cy="96.98" r="3.56"/><line class="cls-2" x1="96.68" y1="93.42" x2="96.68" y2="60.59"/><circle class="cls-2" cx="96.35" cy="161.78" r="3.56"/><line class="cls-2" x1="96.03" y1="165.34" x2="96.03" y2="198.17"/><polyline class="cls-2" points="17.39 25.18 17.39 66.23 72.75 109.89"/><line class="cls-6" x1="31.07" y1="24.14" x2="31.07" y2="39.59"/><polyline class="cls-3" points="47.22 24.14 47.22 59.59 34.63 59.59"/><polyline class="cls-1" points="63.37 24.14 63.37 72.59 76.35 82.65"/><line class="cls-3" x1="79.52" y1="24.14" x2="79.52" y2="49.59"/><polyline class="cls-4" points="96.68 22.14 96.68 60.59 88.92 68.57"/><polyline class="cls-4" points="111.83 24.14 111.83 79.59 126.39 90.48"/><line class="cls-3" x1="127.98" y1="24.14" x2="127.98" y2="57.59"/><polyline class="cls-6" points="144.13 23.14 144.13 66.59 131.86 75.57"/><polyline class="cls-3" points="160.28 22.14 160.28 77.59 149.54 86.1"/><line class="cls-1" x1="175.43" y1="18.36" x2="175.43" y2="60.82"/><circle class="cls-6" cx="31.07" cy="41.86" r="3.56"/><circle class="cls-3" cx="31.07" cy="59.59" r="3.56"/><circle class="cls-2" cx="75.31" cy="111.72" r="3.56"/><circle class="cls-1" cx="79.52" cy="85.53" r="3.56"/><circle class="cls-4" cx="86.04" cy="70.28" r="3.56"/><circle class="cls-4" cx="127.98" cy="91.65" r="3.56"/><circle class="cls-2" cx="111.83" cy="113.45" r="3.56"/><circle class="cls-6" cx="127.98" cy="77.4" r="3.56"/><circle class="cls-3" cx="146.76" cy="87.86" r="3.56"/><circle class="cls-1" cx="175.43" cy="64.71" r="3.56"/><circle class="cls-3" cx="127.98" cy="61.15" r="3.56"/><circle class="cls-3" cx="79.52" cy="53.39" r="3.56"/><polyline class="cls-2" points="176.16 233.58 176.16 192.53 120.8 148.87"/><line class="cls-6" x1="161.48" y1="234.62" x2="161.48" y2="219.17"/><polyline class="cls-3" points="145.33 234.62 145.33 199.17 157.92 199.17"/><polyline class="cls-1" points="129.18 234.62 129.18 186.17 116.2 176.11"/><line class="cls-3" x1="112.64" y1="234.62" x2="112.64" y2="209.17"/><polyline class="cls-4" points="96.03 236.62 96.03 198.17 103.79 190.19"/><polyline class="cls-4" points="80.72 234.62 80.72 179.17 66.16 168.28"/><line class="cls-3" x1="64.57" y1="234.62" x2="64.57" y2="201.17"/><polyline class="cls-6" points="48.42 235.62 48.42 192.17 60.69 183.19"/><polyline class="cls-3" points="32.27 236.62 32.27 181.17 43.01 172.66"/><line class="cls-1" x1="17.12" y1="240.4" x2="17.12" y2="197.94"/><circle class="cls-6" cx="161.48" cy="216.9" r="3.56"/><circle class="cls-3" cx="161.48" cy="199.17" r="3.56"/><circle class="cls-2" cx="118.24" cy="147.04" r="3.56"/><circle class="cls-1" cx="113.02" cy="173.23" r="3.56"/><circle class="cls-4" cx="106.66" cy="188.47" r="3.56"/><circle class="cls-4" cx="64.57" cy="167.11" r="3.56"/><circle class="cls-2" cx="80.72" cy="145.31" r="3.56"/><circle class="cls-6" cx="64.57" cy="181.36" r="3.56"/><circle class="cls-3" cx="45.78" cy="170.9" r="3.56"/><circle class="cls-1" cx="17.12" cy="194.05" r="3.56"/><circle class="cls-3" cx="64.57" cy="197.61" r="3.56"/><circle class="cls-3" cx="112.64" cy="205.36" r="3.56"/><rect class="cls-10" x="93.15" y="126.1" width="6.56" height="6.56"/><rect class="cls-8" x="95.07" y="119.84" width="2.73" height="1.38"/><rect class="cls-8" x="103.51" y="120.46" width="1.42" height="2.73" transform="translate(-53.93 95.52) rotate(-40.01)"/><rect class="cls-8" x="87.26" y="121.13" width="2.73" height="1.43" transform="translate(-61.79 113.18) rotate(-50.68)"/><rect class="cls-8" x="95.07" y="137.52" width="2.73" height="1.38"/><rect class="cls-8" x="87.91" y="135.57" width="1.42" height="2.73" transform="translate(-67.29 89.03) rotate(-40.01)"/><rect class="cls-8" x="102.86" y="136.19" width="2.73" height="1.43" transform="translate(-67.73 130.77) rotate(-50.68)"/><rect class="cls-8" x="10" y="233.46" width="172.86" height="15.18"/><rect class="cls-8" x="10" y="10" width="172.86" height="15.18"/></g></svg>